<?xml version="1.0" encoding="utf-8"?>
<!-- Generator: Adobe Illustrator 26.2.1, SVG Export Plug-In . SVG Version: 6.00 Build 0)  -->
<svg version="1.1" id="Layer_1" xmlns="http://www.w3.org/2000/svg" xmlns:xlink="http://www.w3.org/1999/xlink" x="0px" y="0px"
	 width="170px" height="114px" viewBox="0 0 170 114" style="enable-background:new 0 0 170 114;" xml:space="preserve">
<style type="text/css">
	.st0{fill:#583D3D;}
</style>
<g id="Page-1">
	<g id="ridgeview-logo-dark">
		<path id="Shape" class="st0" d="M87.3,80.5h-2.5L76,61.7c-3.3,2.1-7.1,2.8-7.1,2.8v16.1h-2.2V62.5c0,0,6.4-0.9,10.6-4.1L87.3,80.5
			z M66.7,54.5V41.4l-7.2-16.3v55.4h-2.1V15l15.9,35c0,0,4.4-2.3,5.8-6.4L59.5,0c1.9,0,3.4,0.1,5.6,0.3c9,1,22.5,4.6,27.9,21.9
			c3.3,10.8,1,23-6.9,31.6l5.5,12.1l22.1-65.6h2.2L92.8,68.7l4.5,9.5l27.3-77.9h2.3L98.6,80.5h-2.5L83.5,53.4
			c12.5-12.5,8.3-28.8,6.2-33.5C84.8,8.7,75.9,3.3,63.1,2.2l3.3,7.7c11.5,2.9,17.1,11.7,17.7,20.8C84.5,37.7,81.6,52.5,66.7,54.5
			 M71.2,51.1l-2.6-5.9V52C70.5,51.7,71.2,51.1,71.2,51.1 M80.3,41.4c0,0,6.1-13-4.7-23.9c-1.5-1.6-4.9-3.9-8.2-4.8L80.3,41.4z"/>
		<polygon id="Path" class="st0" points="87.3,98.1 87.3,96.2 78.2,96.2 78.2,113.2 87.3,113.2 87.3,111.3 80.3,111.3 80.3,104.9 
			87.2,104.9 87.2,102.9 80.3,102.9 80.3,98.1 		"/>
		<path id="Path_00000159454846028556800750000010987942301761087138_" class="st0" d="M2,98.1h2.4c1.1,0,1.9,0.3,2.6,1
			c0.8,0.8,1.1,1.6,1.1,2.7c0,0.7-0.2,2.1-1.4,3.1l1.1,1.5c1-0.7,2.3-2.5,2.2-4.6c0-1.6-0.5-2.9-1.6-4c-0.9-0.9-2.3-1.7-3.7-1.7H0
			v17.1h2v-8.7l6.1,8.7h2.4L2,101.2V98.1L2,98.1z"/>
		
			<rect id="Rectangle_00000056424784116129176360000004055229019617540267_" x="19.5" y="96.2" class="st0" width="2.1" height="17.1"/>
		
			<rect id="Rectangle_00000136375614239054942870000005752850716421841536_" x="117.8" y="96.2" class="st0" width="2.1" height="17.1"/>
		<path id="Shape_00000131365739067438874480000017312494488100598444_" class="st0" d="M35.5,96.2H32v17.1h3.5
			c5.4,0,9.6-2.8,9.6-8.7C45.1,98.9,40.8,96.2,35.5,96.2 M34.1,98.2c5.1-0.2,8.9,1.5,8.9,6.5c0,5-3.7,6.6-8.9,6.5V98.2z"/>
		<path id="Path_00000176744371310844478390000009212415769022451607_" class="st0" d="M68.9,104.6h-6.8v2h4.4
			c-0.1,2.8-2.9,5.1-5.6,5.1c-3.7,0-6.6-3.4-6.6-7c0-3.8,2.9-6.9,6.8-6.9c2.1,0,4.3,1,5.5,2.7l1.5-1.4c-1.7-2.1-4.3-3.4-6.9-3.4
			c-4.9,0-8.9,4.1-8.9,9c0,4.7,3.9,8.9,8.7,8.9C65.2,113.6,68.9,110.6,68.9,104.6"/>
		<polygon id="Path_00000026870902798725546600000011267341748845938065_" class="st0" points="103.5,106.1 104.5,108.8 110,96.2 
			107.7,96.2 		"/>
		<polygon id="Path_00000004542185346742079560000003017227897525652358_" class="st0" points="167.7,96.2 162.9,108.3 158.1,95.8 
			153.2,108.4 148.5,96.2 146.1,96.2 153.2,113.9 158.1,101.4 162.9,113.9 170,96.2 		"/>
		<polygon id="Path_00000175296137330787622780000005933804571195780251_" class="st0" points="132.3,104.9 139.2,104.9 
			139.2,102.9 132.3,102.9 132.3,98.1 139.2,98.1 139.2,96.2 130.2,96.2 130.2,113.2 139.4,113.2 139.4,111.3 132.3,111.3 		"/>
		<polygon id="Path_00000110446184464414298560000004039975277483353518_" class="st0" points="96.9,96.2 94.5,96.2 102.4,114 
			103.6,111.2 		"/>
	</g>
</g>
</svg>
