<svg xmlns="http://www.w3.org/2000/svg" viewBox="52 0 80 80">
  <path fill="#C8A96E" d="M87.3,80.5h-2.5L76,61.7c-3.3,2.1-7.1,2.8-7.1,2.8v16.1h-2.2V62.5c0,0,6.4-0.9,10.6-4.1L87.3,80.5z M66.7,54.5V41.4l-7.2-16.3v55.4h-2.1V15l15.9,35c0,0,4.4-2.3,5.8-6.4L59.5,0c1.9,0,3.4,0.1,5.6,0.3c9,1,22.5,4.6,27.9,21.9c3.3,10.8,1,23-6.9,31.6l5.5,12.1l22.1-65.6h2.2L92.8,68.7l4.5,9.5l27.3-77.9h2.3L98.6,80.5h-2.5L83.5,53.4c12.5-12.5,8.3-28.8,6.2-33.5C84.8,8.7,75.9,3.3,63.1,2.2l3.3,7.7c11.5,2.9,17.1,11.7,17.7,20.8C84.5,37.7,81.6,52.5,66.7,54.5 M71.2,51.1l-2.6-5.9V52C70.5,51.7,71.2,51.1,71.2,51.1 M80.3,41.4c0,0,6.1-13-4.7-23.9c-1.5-1.6-4.9-3.9-8.2-4.8L80.3,41.4z"/>
</svg>
